<?xml version="1.0" encoding="utf-8"?>
<!-- Generator: Adobe Illustrator 16.0.0, SVG Export Plug-In . SVG Version: 6.00 Build 0)  -->
<!DOCTYPE svg PUBLIC "-//W3C//DTD SVG 1.1//EN" "http://www.w3.org/Graphics/SVG/1.1/DTD/svg11.dtd">
<svg version="1.1" id="Layer_1" xmlns="http://www.w3.org/2000/svg" xmlns:xlink="http://www.w3.org/1999/xlink" x="0px" y="0px"
	 width="1107px" height="448.629px" viewBox="-329.186 157.625 1107 448.629"
	 enable-background="new -329.186 157.625 1107 448.629" xml:space="preserve">
<rect x="-329.186" y="157.625" fill="#9FBC2E" width="1107" height="448.629"/>
<g>
	<path fill="#FFFFFF" d="M140.973,323.747c0,0-9.578-1.182-13.604-1.182c-7.22,0-11.177,2.569-11.177,8.54
		c0,7.147,3.679,8.191,12.218,9.856c9.44,1.875,13.953,4.163,13.953,12.703c0,10.69-5.623,14.647-15.133,14.647
		c-5.484,0-15.064-1.319-15.064-1.319l0.485-3.68c0,0,9.511,1.182,14.438,1.182c7.219,0,10.899-3.126,10.899-10.55
		c0-6.041-3.126-7.566-11.177-9.027c-9.788-1.871-14.994-3.955-14.994-13.537c0-9.16,5.972-12.632,15.271-12.632
		c5.623,0,14.231,1.319,14.231,1.319L140.973,323.747z"/>
	<path fill="#FFFFFF" d="M174.921,361.993c0.208,2.084,2.222,2.778,4.512,3.057l-0.206,3.332c-3.402,0-5.972-0.696-7.847-2.778
		c0,0-6.524,2.844-13.051,2.844c-6.107,0-9.508-3.541-9.508-10.481c0-6.387,3.193-9.44,10.204-10.134l11.8-1.179v-3.263
		c0-5.276-2.359-7.29-6.802-7.29c-4.998,0-13.119,1.04-13.119,1.04l-0.209-3.332c0,0,7.634-1.457,13.466-1.457
		c7.566,0,10.76,3.678,10.76,11.038V361.993L174.921,361.993z M159.51,351.094c-4.65,0.419-6.385,2.641-6.385,6.804
		c0,4.443,1.942,7.01,5.763,7.01c5.62,0,11.938-2.43,11.938-2.43v-12.563L159.51,351.094z"/>
	<path fill="#FFFFFF" d="M185.683,367.754v-34.708h4.096v2.567c0,0,5.275-3.263,10.62-3.263c4.792,0,7.358,1.111,9.094,3.678
		c0,0,6.109-3.678,12.496-3.678c9.439,0,11.59,4.305,11.59,17.148v18.254h-4.095v-18.045c0-10.205-1.11-13.607-7.983-13.607
		c-5.689,0-10.55,2.915-10.55,2.915c0.764,1.944,1.042,6.107,1.042,10.692v18.045h-4.166v-17.908c0-10.413-1.11-13.745-7.913-13.745
		c-5.415,0-10.135,2.915-10.135,2.915v28.738h-4.096V367.754z"/>
	<path fill="#FFFFFF" d="M243.652,333.049h4.095v2.636c0,0,5.411-3.332,10.967-3.332c8.678,0,12.357,5.484,12.357,17.563
		c0,13.396-4.234,18.533-14.995,18.533c-3.47,0-7.081-0.623-8.329-0.902v15.829h-4.095V333.049z M247.747,339.225v24.714
		c1.177,0.208,4.859,0.832,8.191,0.832c8.052,0,10.827-4.164,10.827-14.855c0-10.136-3.054-13.814-8.47-13.814
		C253.092,336.101,247.747,339.225,247.747,339.225z"/>
	<path fill="#FFFFFF" d="M280.376,317.637h4.096v50.118h-4.096V317.637z"/>
	<path fill="#FFFFFF" d="M320.357,364.077l0.14,3.403c0,0-7.846,0.969-13.259,0.969c-10.345-0.066-13.466-6.316-13.466-17.908
		c0-13.399,5.83-18.188,14.299-18.188c8.957,0,13.674,4.789,13.674,16.452l-0.137,3.332h-23.603c0,8.191,2.358,12.563,9.647,12.563
		C312.723,364.702,320.357,364.077,320.357,364.077z M317.58,348.665c0-9.369-2.98-12.701-9.509-12.701
		c-6.317,0-10.064,3.469-10.064,12.701H317.58z"/>
	<path fill="#FFFFFF" d="M114.317,387.413h4.305v48.242h-4.305V387.413z"/>
	<path fill="#FFFFFF" d="M129.87,435.655v-34.706h4.096v2.566c0,0,5.273-3.263,10.618-3.263c4.79,0,7.36,1.11,9.095,3.679
		c0,0,6.108-3.679,12.495-3.679c9.44,0,11.593,4.306,11.593,17.147v18.255h-4.097v-18.046c0-10.205-1.109-13.607-7.981-13.607
		c-5.692,0-10.552,2.916-10.552,2.916c0.764,1.943,1.042,6.107,1.042,10.691v18.046h-4.166v-17.908
		c0-10.413-1.11-13.745-7.913-13.745c-5.415,0-10.134,2.916-10.134,2.916v28.738L129.87,435.655L129.87,435.655z"/>
	<path fill="#FFFFFF" d="M211.716,429.893c0.209,2.084,2.223,2.778,4.514,3.058l-0.208,3.332c-3.403,0-5.972-0.696-7.846-2.778
		c0,0-6.525,2.844-13.05,2.844c-6.11,0-9.511-3.541-9.511-10.48c0-6.387,3.193-9.44,10.205-10.135l11.8-1.178v-3.264
		c0-5.275-2.358-7.29-6.802-7.29c-4.998,0-13.12,1.04-13.12,1.04l-0.211-3.332c0,0,7.637-1.457,13.467-1.457
		c7.565,0,10.76,3.678,10.76,11.038v18.602L211.716,429.893L211.716,429.893z M196.306,418.995
		c-4.651,0.419-6.387,2.641-6.387,6.804c0,4.443,1.942,7.01,5.76,7.01c5.623,0,11.94-2.43,11.94-2.43v-12.563L196.306,418.995z"/>
	<path fill="#FFFFFF" d="M220.947,441.417c0-4.234,1.945-6.037,5.626-8.746c-1.183-0.765-1.738-2.569-1.738-4.72
		c0-1.183,2.223-5.414,2.223-5.414c-2.985-1.25-5.691-4.026-5.691-10.482c0-8.471,4.999-11.803,12.563-11.803
		c3.608,0,7.289,0.902,7.289,0.902l10.063-0.206v3.678l-6.94-0.14c1.456,1.455,2.498,3.472,2.498,7.568
		c0,8.813-4.371,11.592-13.119,11.592c-0.625,0-2.775-0.141-3.54-0.279c0,0-1.387,3.4-1.387,4.303c0,2.986,0.556,3.332,8.814,3.403
		c9.438,0,12.979,1.667,12.979,10.063c0,7.775-5.208,10.968-15.2,10.968C224.212,452.109,220.947,449.471,220.947,441.417z
		 M229.486,434.478c-3.332,2.359-4.372,3.679-4.372,6.664c0,5.414,1.876,7.358,10.344,7.358c7.633,0,10.896-2.082,10.896-7.218
		c0-5.899-2.498-6.527-9.022-6.527C234.691,434.752,229.486,434.478,229.486,434.478z M242.605,412.057
		c0-6.041-2.287-8.334-8.677-8.334c-5.831,0-8.331,2.293-8.331,8.334c0,5.967,2.5,8.12,8.331,8.12
		C240.318,420.176,242.605,418.023,242.605,412.057z"/>
	<path fill="#FFFFFF" d="M282.869,431.977l0.144,3.403c0,0-7.845,0.969-13.263,0.969c-10.34-0.065-13.466-6.315-13.466-17.907
		c0-13.399,5.833-18.188,14.302-18.188c8.954,0,13.677,4.789,13.677,16.452l-0.141,3.332h-23.604c0,8.191,2.357,12.563,9.649,12.563
		C275.236,432.602,282.869,431.977,282.869,431.977z M280.094,416.564c0-9.369-2.983-12.7-9.512-12.7
		c-6.317,0-10.063,3.469-10.063,12.7H280.094z"/>
</g>
</svg>
